<!DOCTYPE svg PUBLIC "-//W3C//DTD SVG 1.1//EN" "http://www.w3.org/Graphics/SVG/1.1/DTD/svg11.dtd">
<!-- Uploaded to: SVG Repo, www.svgrepo.com, Transformed by: SVG Repo Mixer Tools -->
<svg fill="#1C274C" width="800px" height="800px" viewBox="0 0 24 24" xmlns="http://www.w3.org/2000/svg" stroke="#1C274C" stroke-width="0.00024000000000000003">
<g id="SVGRepo_bgCarrier" stroke-width="0"/>
<g id="SVGRepo_tracerCarrier" stroke-linecap="round" stroke-linejoin="round" stroke="#CCCCCC" stroke-width="0.288"/>
<g id="SVGRepo_iconCarrier">
<path d="M23,16a1,1,0,0,1-1,1H2a1,1,0,0,1,0-2H22A1,1,0,0,1,23,16Zm-5,5a1,1,0,0,0,0-2H6a1,1,0,0,0,0,2ZM7,12a1,1,0,0,0,2,0,3,3,0,0,1,6,0,1,1,0,0,0,2,0A5,5,0,0,0,7,12Zm4-7a1,1,0,0,0,2,0V4a1,1,0,0,0-2,0Zm7,7a1,1,0,0,0,1,1h1a1,1,0,0,0,0-2H19A1,1,0,0,0,18,12ZM4,11a1,1,0,0,0,0,2H5a1,1,0,0,0,0-2ZM5.636,5.636a1,1,0,0,0,0,1.414l.707.707A1,1,0,0,0,7.757,6.343L7.05,5.636A1,1,0,0,0,5.636,5.636Zm11.314,0-.707.707a1,1,0,1,0,1.414,1.414l.707-.707A1,1,0,1,0,16.95,5.636Z"/>
</g>
</svg>